<?xml version="1.0" standalone="no"?>
<!DOCTYPE svg PUBLIC "-//W3C//DTD SVG 20010904//EN"
 "http://www.w3.org/TR/2001/REC-SVG-20010904/DTD/svg10.dtd">
<svg version="1.0" xmlns="http://www.w3.org/2000/svg"
 width="700.000000pt" height="700.000000pt" viewBox="0 0 700.000000 700.000000"
 preserveAspectRatio="xMidYMid meet">
<metadata>
Created by potrace 1.11, written by Peter Selinger 2001-2013
</metadata>
<g transform="translate(0.000000,700.000000) scale(0.100000,-0.100000)"
fill="#000000" stroke="none">
<path d="M875 6694 c-93 -24 -159 -71 -199 -144 -55 -101 -31 -216 60 -285
l41 -31 -58 -23 c-73 -28 -150 -96 -183 -162 -22 -44 -25 -63 -23 -133 2 -55
9 -92 21 -116 68 -128 182 -197 338 -204 150 -6 263 37 351 135 l55 60 25 -44
c45 -76 123 -119 240 -131 l47 -5 0 80 c0 81 -6 94 -27 60 -31 -49 -136 16
-191 119 l-20 38 40 72 c43 78 125 170 150 170 9 0 20 -9 23 -20 13 -43 25 -5
25 81 0 103 -2 104 -85 65 -61 -28 -121 -94 -167 -181 -18 -36 -36 -65 -40
-65 -4 0 -9 9 -13 19 -12 38 -67 103 -110 130 l-44 28 50 33 c68 44 102 97
107 169 8 117 -39 198 -147 253 -56 28 -75 32 -155 34 -50 2 -100 1 -111 -2z
m165 -99 c37 -9 93 -51 113 -84 36 -62 27 -141 -23 -188 -40 -37 -82 -51 -156
-52 -157 -2 -253 125 -189 249 35 68 147 101 255 75z m15 -466 c73 -38 136
-122 148 -196 11 -67 -65 -158 -170 -205 -69 -31 -189 -30 -260 1 -180 79
-191 303 -21 396 82 45 220 47 303 4z"/>
<path d="M3534 6345 c-34 -11 -78 -33 -98 -48 -65 -50 -92 -141 -62 -208 44
-98 105 -119 393 -134 114 -6 164 -25 189 -70 40 -74 -27 -161 -144 -186 -155
-32 -401 40 -403 119 l0 27 -17 -24 c-9 -14 -29 -46 -45 -72 l-27 -49 27 6
c19 4 52 -6 104 -30 98 -45 153 -57 265 -58 226 0 354 104 329 268 -5 34 -16
55 -44 83 -53 53 -78 58 -375 76 -154 10 -215 69 -165 162 43 81 250 114 394
64 82 -29 107 -47 99 -73 -13 -41 17 -12 51 49 34 62 36 80 6 61 -13 -8 -29
-5 -64 11 -120 55 -295 66 -413 26z"/>
<path d="M5395 6363 c-134 -25 -228 -82 -285 -174 -80 -131 -73 -293 18 -414
94 -124 248 -177 448 -152 151 19 255 93 317 224 24 53 29 76 29 141 0 174
-102 308 -274 358 -68 20 -191 28 -253 17z m200 -78 c207 -42 308 -279 194
-454 -65 -99 -179 -147 -330 -138 -184 10 -301 113 -316 277 -20 220 192 368
452 315z"/>
<path d="M2197 6354 c-3 -3 3 -14 13 -24 17 -17 18 -41 18 -337 0 -311 0 -318
-21 -341 l-22 -24 285 4 c200 3 294 8 315 17 38 16 82 57 102 96 21 39 20 132
0 172 -18 34 -75 83 -98 83 -7 0 1 10 18 23 53 37 76 89 70 158 -6 73 -37 117
-104 150 -46 23 -58 24 -309 26 -144 2 -264 0 -267 -3z m545 -92 c38 -24 58
-63 58 -115 0 -37 -59 -96 -98 -98 -15 -1 -109 -3 -209 -4 l-183 -1 0 124 0
124 198 -4 c184 -4 201 -6 234 -26z m-9 -306 c53 -21 79 -56 85 -115 3 -37 -1
-53 -20 -81 -39 -57 -71 -63 -375 -61 l-113 1 0 134 c0 118 2 135 17 138 9 2
95 2 191 2 134 -2 183 -6 215 -18z"/>
<path d="M3047 6354 c-3 -3 3 -14 13 -24 18 -18 19 -38 17 -344 -2 -312 -3
-326 -22 -340 -18 -14 -13 -15 64 -16 l84 0 -20 23 c-20 21 -20 33 -20 345 0
307 1 324 19 336 11 8 16 16 11 18 -12 7 -139 8 -146 2z"/>
<path d="M4180 6350 c0 -6 7 -13 15 -16 13 -5 15 -52 15 -335 0 -325 0 -328
-22 -349 l-22 -20 82 0 c48 0 82 4 82 10 0 6 -7 10 -15 10 -19 0 -18 -6 -20
173 l-1 147 248 0 c191 0 248 -3 249 -12 0 -7 1 -76 1 -153 0 -115 -3 -141
-16 -151 -28 -20 -18 -24 59 -24 77 0 87 4 58 25 -15 11 -16 45 -17 340 0 296
2 328 17 337 33 18 16 26 -58 26 -73 0 -91 -8 -59 -26 12 -7 15 -33 16 -145 1
-75 -1 -139 -3 -142 -7 -6 -477 -7 -488 -1 -4 3 -8 67 -7 141 1 119 3 138 19
146 33 19 17 27 -58 28 -47 1 -75 -3 -75 -9z"/>
<path d="M6070 6349 c0 -5 7 -12 15 -15 13 -5 15 -53 15 -340 0 -288 -2 -335
-15 -340 -35 -14 -10 -24 60 -24 76 0 89 6 57 26 -15 10 -17 28 -17 155 l1
144 164 1 c225 2 258 7 319 52 63 47 88 148 56 225 -18 43 -46 72 -100 100
-37 19 -59 21 -297 24 -170 2 -258 -1 -258 -8z m525 -81 c39 -21 57 -55 58
-110 2 -53 -20 -91 -64 -114 -46 -23 -398 -27 -400 -4 -4 46 -4 227 -1 238 7
22 366 12 407 -10z"/>
<path d="M3286 5231 c-38 -25 -55 -57 -56 -103 0 -47 15 -85 42 -108 l23 -18
-131 -193 c-167 -247 -224 -360 -228 -449 -5 -109 24 -210 85 -302 38 -56 38
-58 18 -68 -25 -14 -48 -65 -41 -92 2 -10 15 -27 28 -37 21 -16 47 -18 334
-17 l311 1 19 25 c34 43 25 92 -21 116 l-29 15 25 27 c33 34 81 133 98 203 8
29 13 85 12 124 -3 83 -21 125 -114 269 l-65 98 -37 -83 c-63 -138 -72 -154
-96 -157 -15 -2 -23 2 -23 11 0 8 27 76 61 151 l60 136 -61 93 c-34 50 -69
100 -78 110 -15 17 -15 19 2 29 45 25 60 130 26 186 -33 54 -109 69 -164 33z"/>
<path d="M860 5128 c-64 -20 -113 -47 -138 -78 -42 -51 -56 -117 -37 -175 35
-100 110 -127 399 -141 143 -6 196 -37 196 -113 0 -47 -35 -94 -89 -121 -70
-34 -207 -39 -297 -11 -93 28 -173 75 -169 98 6 41 -10 31 -47 -32 -22 -36
-37 -69 -34 -73 4 -3 11 -1 17 5 8 8 32 1 84 -23 105 -48 186 -67 290 -67 162
0 271 53 313 152 35 79 19 155 -42 209 -44 38 -83 49 -211 57 -258 15 -289 22
-320 69 -21 32 -15 88 12 118 79 88 314 96 466 17 9 -6 17 -21 17 -34 0 -39
12 -30 48 34 35 65 42 92 18 72 -12 -10 -34 -6 -108 20 -121 42 -266 49 -368
17z"/>
<path d="M690 4110 c0 -4 7 -13 15 -20 13 -11 15 -61 15 -341 0 -302 -1 -329
-17 -338 -13 -8 -15 -13 -7 -18 16 -11 144 -4 144 8 0 5 -7 9 -15 9 -8 0 -15
6 -16 13 -4 48 -4 287 1 288 3 1 86 2 185 4 102 1 199 7 223 14 95 27 152 117
137 218 -12 83 -66 139 -155 159 -45 10 -510 13 -510 4z m522 -84 c60 -29 80
-102 47 -171 -28 -60 -59 -68 -271 -70 -140 -1 -178 2 -179 12 -3 31 -5 239
-2 244 1 4 85 6 185 5 151 -2 189 -5 220 -20z"/>
<path d="M5440 3807 c-20 -69 -101 -218 -153 -283 -69 -87 -191 -230 -238
-279 -264 -279 -306 -325 -380 -415 -30 -36 -62 -74 -72 -85 -32 -35 -103
-148 -141 -224 -93 -183 -101 -382 -23 -541 36 -72 140 -170 227 -212 94 -45
164 -61 261 -61 194 1 361 90 466 249 22 33 -34 -112 -72 -188 -66 -130 -146
-240 -265 -359 -63 -63 -131 -127 -150 -141 l-35 -26 591 0 591 0 -76 65 c-80
69 -154 145 -199 203 -15 19 -30 37 -33 40 -13 11 -107 158 -137 217 -18 34
-43 92 -57 130 -24 66 -24 67 -3 38 164 -224 450 -291 714 -165 183 88 289
263 280 465 -2 44 -6 89 -9 100 -54 222 -159 378 -491 730 -281 298 -368 399
-454 527 -40 59 -112 206 -112 229 0 36 -17 27 -30 -14z"/>
<path d="M3070 3695 l0 -125 -47 0 c-100 0 -159 -107 -99 -177 l24 -28 389 -1
388 -1 32 34 c27 28 32 40 28 68 -8 63 -54 105 -114 105 -18 0 -31 5 -32 13 0
6 0 63 0 125 l1 112 -285 0 -285 0 0 -125z"/>
<path d="M3109 3312 c-5 -13 -9 -34 -9 -47 0 -107 -103 -414 -231 -683 -27
-58 -49 -107 -49 -108 0 -2 241 -4 535 -4 l534 0 -19 33 c-10 17 -37 75 -60
127 -23 52 -45 104 -50 115 -28 62 -74 188 -100 275 -30 102 -63 267 -55 279
2 4 0 13 -5 21 -8 12 -51 15 -246 15 l-236 0 -9 -23z"/>
<path d="M920 3089 c0 -4 5 -11 11 -15 15 -9 6 -37 -50 -155 -84 -179 -126
-270 -177 -383 -27 -60 -61 -121 -76 -137 -16 -15 -28 -29 -28 -31 0 -3 136
-2 165 1 5 1 -1 8 -13 17 -24 17 -26 8 29 132 l23 52 196 0 197 0 37 -82 37
-82 -23 -18 c-13 -10 -18 -18 -13 -19 14 -1 136 -2 158 0 23 1 22 17 -3 24
-21 5 -72 106 -217 427 -14 30 -43 92 -64 138 -40 85 -47 112 -29 112 6 0 10
6 10 13 0 9 -24 12 -85 13 -47 0 -85 -3 -85 -7z m143 -224 c30 -66 64 -141 76
-167 11 -26 21 -49 21 -52 0 -4 -72 -6 -160 -6 -88 0 -160 2 -160 4 0 3 23 54
99 219 17 37 31 71 31 75 0 10 31 54 35 50 2 -2 28 -57 58 -123z"/>
<path d="M2770 2434 c-41 -17 -55 -68 -32 -108 l18 -31 598 0 599 0 19 26 c26
34 17 83 -20 107 -24 15 -75 17 -590 17 -404 0 -572 -3 -592 -11z"/>
<path d="M2790 2262 c-17 -6 -98 -175 -132 -275 -52 -154 -40 -300 38 -461
l34 -71 639 0 640 -1 30 66 c49 108 65 176 65 285 1 71 -4 116 -17 155 -19 58
-137 299 -146 301 -18 3 -1143 3 -1151 1z"/>
<path d="M635 2070 c-2 -4 4 -13 13 -21 16 -14 18 -43 17 -342 -1 -306 -2
-328 -19 -340 -15 -11 -16 -15 -5 -19 30 -10 465 -1 509 11 150 41 238 169
238 347 1 184 -86 314 -238 355 -47 12 -508 20 -515 9z m475 -75 c76 -17 125
-58 163 -135 18 -38 22 -62 22 -150 0 -90 -3 -112 -24 -153 -31 -64 -81 -111
-133 -127 -27 -8 -109 -13 -215 -15 l-173 -2 0 297 0 296 163 -1 c89 -1 178
-5 197 -10z"/>
<path d="M2701 1396 c-19 -31 -37 -98 -36 -136 0 -13 85 -15 705 -15 l704 0
-3 49 c-3 58 -12 83 -39 114 l-19 22 -646 0 -645 0 -21 -34z"/>
<path d="M1304 1072 c-11 -17 -33 -18 -313 -18 -170 1 -301 -3 -301 -8 0 -5 7
-14 17 -21 15 -11 16 -45 16 -334 -1 -282 -3 -324 -17 -340 -9 -10 -16 -19
-16 -22 0 -2 138 -4 306 -4 279 0 306 -2 315 -18 18 -32 26 -17 26 53 -1 70
-8 85 -26 53 -9 -16 -32 -18 -255 -18 -215 -1 -246 1 -247 15 -3 48 -4 227 -1
240 3 14 27 16 164 15 139 -1 162 -3 173 -18 21 -29 25 -20 25 53 0 73 -4 82
-26 53 -11 -16 -32 -18 -173 -19 -141 -1 -161 1 -162 15 -5 106 -2 231 6 234
6 1 115 2 244 2 206 -1 235 -3 246 -18 21 -29 25 -20 25 53 0 71 -6 84 -26 52z"/>
<path d="M3708 809 c-3 -8 -68 -11 -211 -11 -188 0 -227 -4 -197 -23 6 -4 10
-90 10 -226 0 -139 -4 -219 -10 -219 -5 0 -10 -4 -10 -10 0 -5 20 -10 45 -10
l45 0 -7 33 c-4 17 -7 68 -7 112 l-1 80 108 3 c62 1 115 -2 127 -8 19 -10 20
-8 20 36 0 41 -2 45 -16 33 -15 -13 -233 -22 -235 -10 0 3 -2 41 -3 84 l-1 77
165 0 c116 0 170 -4 178 -12 7 -7 12 -8 13 -2 5 54 4 76 -2 80 -4 2 -9 -1 -11
-7z"/>
<path d="M3760 774 c0 -37 3 -45 12 -36 8 8 46 12 104 12 l91 0 -2 -202 c-1
-112 -5 -211 -9 -220 -7 -16 -2 -18 38 -18 42 0 59 11 37 24 -4 3 -8 97 -7
208 l1 203 93 3 c59 2 92 -1 92 -8 0 -5 5 -10 10 -10 6 0 10 21 10 46 0 40 -2
45 -15 34 -21 -17 -420 -17 -441 1 -12 10 -14 4 -14 -37z"/>
<path d="M6568 809 c-3 -8 -66 -11 -206 -11 -170 0 -201 -2 -191 -14 16 -19
16 -447 0 -452 -6 -2 -11 -8 -11 -12 0 -5 91 -9 201 -10 135 0 206 -4 215 -11
12 -9 14 -3 14 36 0 41 -2 46 -15 35 -14 -12 -320 -18 -332 -7 -3 3 -5 43 -5
89 l0 83 101 3 c56 2 109 -2 120 -7 16 -9 19 -7 23 12 2 12 2 33 -2 46 -4 20
-7 21 -17 9 -9 -10 -37 -14 -112 -13 -55 0 -103 3 -107 7 -6 6 -7 37 -5 126
l1 32 165 0 c103 0 165 -4 165 -10 0 -5 5 -10 10 -10 6 0 10 20 10 45 0 41
-13 61 -22 34z"/>
<path d="M2219 795 c-65 -17 -106 -44 -124 -81 -32 -68 -7 -132 64 -161 19 -8
82 -17 140 -20 58 -3 121 -11 139 -19 62 -25 59 -96 -6 -136 -55 -34 -177 -32
-255 4 -32 15 -61 36 -65 47 -6 18 -10 15 -35 -25 -18 -30 -23 -45 -13 -41 8
3 46 -8 85 -24 132 -55 282 -43 355 30 27 27 31 38 31 85 0 95 -43 122 -215
131 -129 8 -152 14 -175 49 -15 22 -15 27 -1 54 20 38 71 62 143 66 89 5 200
-31 188 -61 -7 -21 9 -15 23 8 20 32 34 71 22 64 -6 -4 -38 3 -72 15 -74 25
-166 32 -229 15z"/>
<path d="M2814 795 c-131 -29 -214 -136 -201 -259 14 -141 119 -228 277 -230
98 -1 160 18 214 65 155 137 90 379 -114 424 -55 13 -121 12 -176 0z m198 -59
c159 -67 160 -296 2 -362 -165 -69 -344 26 -344 183 0 118 104 203 240 197 36
-1 82 -10 102 -18z"/>
<path d="M4287 777 c12 -12 35 -62 53 -112 17 -49 51 -142 75 -205 25 -69 39
-119 34 -124 -18 -20 -8 -26 46 -26 30 0 55 5 55 10 0 6 -5 10 -11 10 -6 0 -8
9 -4 23 8 24 74 218 108 311 l21 59 17 -49 c9 -27 38 -107 64 -179 53 -148 58
-165 44 -165 -5 0 -9 -4 -9 -10 0 -5 25 -10 55 -10 30 0 55 4 55 9 0 5 -5 11
-10 13 -12 4 -10 12 69 238 34 96 70 187 82 203 l20 28 -55 -2 c-49 -2 -53 -4
-44 -19 9 -14 -2 -56 -47 -191 -32 -96 -62 -177 -65 -182 -4 -4 -35 76 -69
178 -51 148 -61 188 -51 200 10 12 3 14 -49 14 -34 0 -61 -5 -61 -10 0 -5 4
-9 10 -9 5 0 8 -6 5 -12 -21 -65 -109 -319 -117 -341 l-11 -29 -14 34 c-8 18
-23 58 -33 88 -10 30 -35 99 -54 153 -29 80 -32 99 -21 104 28 10 6 19 -51 21
l-57 1 20 -22z"/>
<path d="M5220 791 c0 -5 5 -11 11 -13 12 -4 -175 -413 -204 -446 l-20 -22 56
0 c53 0 56 1 46 18 -9 14 -6 28 15 70 l26 51 129 0 129 1 22 -55 c17 -41 20
-58 11 -68 -9 -11 1 -14 52 -16 60 -1 61 -1 41 16 -11 10 -64 114 -118 231
-80 174 -96 215 -86 227 11 13 4 15 -49 15 -33 0 -61 -4 -61 -9z m111 -177
c27 -59 46 -110 43 -113 -6 -6 -204 -10 -204 -4 0 2 13 31 28 66 16 34 39 86
52 114 13 29 25 51 28 49 2 -3 26 -53 53 -112z"/>
<path d="M5600 790 c0 -4 5 -10 10 -12 15 -5 14 -436 -1 -454 -9 -12 -2 -14
40 -14 46 0 69 12 40 22 -7 2 -11 40 -12 98 l-1 95 94 3 95 2 58 -95 c33 -53
56 -102 53 -110 -4 -12 5 -15 52 -15 47 1 54 3 41 13 -15 11 -124 172 -131
193 -2 5 -1 9 2 10 25 5 93 49 105 68 21 32 21 95 1 134 -30 58 -60 66 -263
68 -101 2 -183 -1 -183 -6z m386 -74 c43 -49 19 -120 -43 -132 -69 -13 -255
-10 -260 4 -3 7 -6 47 -7 88 l-1 75 143 -3 144 -3 24 -29z"/>
</g>
</svg>
