<svg xmlns="http://www.w3.org/2000/svg" width="227" height="227" viewBox="0 0 2000 2000">
  <defs>
    <style>
      .cls-1, .cls-2 {
        fill-rule: evenodd;
      }

      .cls-2 {
        fill: #be24c4;
      }
    </style>
  </defs>
  <path id="Bishop_1" data-name="Bishop 1" class="cls-1" d="M780.489,1584.55H1144.98c16.27-27.91,31.1-69.37,28.78-112.19s-31.18-85.81-47.22-119H795.2c-18.481,36.52-43.107,79.53-45.141,122.92C748.08,1518.44,764.234,1556.64,780.489,1584.55Zm13.462-238.58c2.512,0.03,125.875,0,172.124,0s156.4,0.03,158.915,0c4.25-.24,17.03-10.45,14.36-23.74-3.1-16.62-16.94-20.7-20.98-20.7H800.554c-4.03,0-18.788,3.59-21.891,20.21C775.98,1335.03,789.7,1345.73,793.951,1345.97ZM1028.6,1047.46H887.986c-3.344,79.38-51.169,180.25-83.229,247.14H1110.28C1076.34,1225.75,1031.94,1126.84,1028.6,1047.46Zm-180.9-8.5c1.616,0.04,81.3.02,111.188,0.01,29.875,0.01,101.019.03,102.639-.01,2.75-.31,22.21-11.25,20.47-28.74-1.99-21.872-22.13-29.74-24.72-29.74h-17.8V908.61H877.108v71.87H851.963c-2.605,0-21.612,9.373-23.629,31.24C826.608,1029.22,844.948,1038.65,847.7,1038.96Zm29.206-181.07c-11.5,0-20.785,9.982-20.785,22.128,0,12.168,9.32,22.011,20.8,22.011H1039.18c11.49,0,20.8-9.843,20.8-22.011,0-12.146-9.29-22.128-20.77-22.128,34.79-32.726,49.21-97.214,34.59-130.85-12.45-28.68-30.99-51.343-46.42-76.077l-26.78,59.471s-2.176,10.916-11.964,10.628c-11.006-.332-4.72-11.968-4.72-11.968l33.764-74.423c-9.72-14.66-30.272-44.42-43.463-64.078,12.493-6.37,17.242-19.408,17.242-35.069,0-21.778-12.1-35.9-32.7-35.9s-36.46,14.122-36.46,35.9c0,15.661,7.094,28.7,19.587,35.069C893.613,642.614,867.939,672.8,844.36,727.04,829.732,760.676,842.115,825.164,876.909,857.89ZM1147.3,1591.94H778.155s-10.278,11.37-13.242,21.55c-2.974,10.2-3.912,31.57-3.912,31.57H1164.48s-0.06-21.5-3.49-32.3C1157.52,1601.97,1147.3,1591.94,1147.3,1591.94Z"/>
  <path id="BISHOP" class="cls-2" d="M823.26,239.456q0-28.228-21.057-43.335a58.637,58.637,0,0,0-21.134-9.613q-11.98-2.9-30.288-2.9H626.574v4.883q5.8,1.374,7.782,4.044t1.984,9.079V373.885q0,6.41-1.984,9t-7.782,4.12v4.883H747.881q30.213,0,46.54-5.722a51.383,51.383,0,0,0,25.94-19.608q9.762-14.037,9.765-32.5,0-38.145-36.316-50.354,29.448-14.19,29.45-44.25h0ZM660.3,203.445h78.735q23.193,0,34.409,2.823a36.6,36.6,0,0,1,18.234,10.3,32.619,32.619,0,0,1,8.7,22.889,32.127,32.127,0,0,1-4.883,17.7,29,29,0,0,1-13.733,11.291,62.327,62.327,0,0,1-15.64,3.968,223.068,223.068,0,0,1-25.559,1.068H660.3V203.445Zm0,89.874h82.092q24.108,0,35.706,3.128a37.34,37.34,0,0,1,19.073,11.826q9,10.528,9,25.482a37.9,37.9,0,0,1-5.112,19.836,32,32,0,0,1-14.267,12.818,57.614,57.614,0,0,1-16.174,4.5q-8.7,1.144-26.7,1.144H660.3V293.319Zm217.361,89.569q-1.91,2.6-7.858,4.12v4.883h43.488v-4.883q-5.952-1.524-7.859-4.12t-1.907-9V201.614q0-6.41,1.984-9t7.782-4.12v-4.883H869.8v4.883q5.8,1.374,7.782,4.044t1.984,9.079V373.885Q879.565,380.295,877.657,382.888ZM1150.41,194.394q-4.74,6.151-7.48,6.149c-0.81,0-2.9-.717-6.25-2.153q-22.59-10.142-40.52-14.293a172,172,0,0,0-38.83-4.151,159.315,159.315,0,0,0-47.15,6.638q-21.514,6.637-33.722,18.234-16.479,15.871-16.479,37.994a47.133,47.133,0,0,0,6.332,23.957,45.009,45.009,0,0,0,17.166,17.09,87.178,87.178,0,0,0,26.473,9.46q14.88,2.9,41.12,3.967,36.78,1.374,44.64,2.06a61.328,61.328,0,0,1,15.18,3.281q22.725,7.782,22.73,28.229,0,15.564-13.27,26.855-19.995,16.938-58.6,16.937a146.042,146.042,0,0,1-35.32-4.043,153.72,153.72,0,0,1-33.8-13.2Q973.1,347.185,973.1,342.3q0-2.136,2.9-8.24l-4.272-2.441-22.888,38.3,4.119,2.594q4.883-5.493,7.172-5.493,1.374,0,9,3.51,27.312,14.343,47,19.683t46.08,5.341q45.78,0,71.87-20.142,23.505-18,23.5-46.234,0-29.6-25.94-44.1-9.765-5.493-24.87-7.7t-50.2-3.281q-25.335-.757-36.55-2.208a66.637,66.637,0,0,1-19.45-5.252,28.168,28.168,0,0,1-12.058-10.128,25.265,25.265,0,0,1-4.577-14.389,29.384,29.384,0,0,1,5.874-17.359,43.727,43.727,0,0,1,15.941-13.4q20.91-10.507,49.14-10.507a151.6,151.6,0,0,1,65,14.343q11.295,5.343,11.29,9.918,0,1.681-2.59,8.545l4.27,2.289,21.82-39.4Zm218.96,179.491q0,6.41-1.98,9-2,2.6-7.78,4.12v4.883h43.48v-4.883c-3.86-1.016-6.46-2.415-7.78-4.2s-1.98-4.754-1.98-8.927V201.614q0-6.41,1.98-9c1.32-1.728,3.92-3.1,7.78-4.12v-4.883h-43.48v4.883q5.79,1.374,7.78,4.044t1.98,9.079v73.242H1226.7V201.614q0-6.41,1.99-9t7.78-4.12v-4.883h-43.49v4.883c3.86,0.916,6.46,2.265,7.78,4.044s1.99,4.806,1.99,9.079V373.885q0,6.41-1.91,9t-7.86,4.12v4.883h43.49v-4.883q-5.955-1.524-7.86-4.12t-1.91-9V294.692h142.67v79.193Zm142.98-184.478q-33.57,12.97-51.88,41.2a104.328,104.328,0,0,0,19.38,136.109q33.555,28.839,88.34,28.839,31.29,0,56-9.461,33.12-12.663,51.73-41.351,16.935-25.938,16.94-55.694A107.764,107.764,0,0,0,1685.08,248a100.207,100.207,0,0,0-28.39-39.215q-33.72-28.839-88.8-28.839-32.04.458-55.54,9.461h0Zm98.57,18q17.085,5.647,32.04,19.684,24.87,23.5,24.87,61.8,0,35.4-24.87,59.509-27.315,26.247-74.77,26.245-47.3,0-74.46-26.245-25.02-24.108-25.02-60.73,0-36.466,25.02-60.577,27.315-26.243,74.16-26.245,24.1,0.153,43.03,6.561h0ZM1843,298.2q28.7,0,44.18-4.654a52.98,52.98,0,0,0,25.56-16.4q13.11-15.256,13.12-36.621a55.457,55.457,0,0,0-7.17-28.077,48.353,48.353,0,0,0-16.94-17.547,64.681,64.681,0,0,0-22.89-8.85q-12.81-2.439-35.86-2.442H1733.45v4.883q5.49,1.527,7.63,3.967t2.13,7.019V375.869q0,4.731-2.13,7.172t-7.63,3.967v4.883h43.48v-4.883q-5.49-1.524-7.63-3.967t-2.13-7.172V298.2H1843Zm-75.83-94.757h78.12q17.55,0,25.94,1.373a43.108,43.108,0,0,1,15.11,5.341q15.57,9.155,15.56,30.822,0,21.516-15.56,30.671a43.13,43.13,0,0,1-15.18,5.34q-8.475,1.374-25.87,1.373h-78.12v-74.92Z"/>
  <path id="S_P_A_D_E" data-name="S P A D E" class="cls-2" d="M383.408,543.18q-4.731,6.152-7.477,6.149-1.223,0-6.256-2.153-22.584-10.142-40.512-14.293a172.09,172.09,0,0,0-38.834-4.151,159.328,159.328,0,0,0-47.149,6.638q-21.515,6.637-33.722,18.234-16.479,15.871-16.48,37.994a47.124,47.124,0,0,0,6.333,23.957,45.009,45.009,0,0,0,17.166,17.09,87.194,87.194,0,0,0,26.474,9.46q14.877,2.9,41.122,3.967,36.773,1.374,44.632,2.06a61.3,61.3,0,0,1,15.183,3.281q22.734,7.782,22.735,28.229,0,15.564-13.275,26.855-19.99,16.938-58.593,16.937a146.06,146.06,0,0,1-35.325-4.043,153.593,153.593,0,0,1-33.8-13.2Q206.1,695.971,206.1,691.086q0-2.136,2.9-8.24l-4.272-2.441-22.889,38.3,4.12,2.594q4.882-5.493,7.172-5.493,1.374,0,9,3.51,27.312,14.344,47,19.683t46.081,5.341q45.777,0,71.869-20.142,23.5-18,23.5-46.234,0-29.6-25.94-44.1-9.766-5.493-24.872-7.705t-50.2-3.281q-25.332-.758-36.545-2.208a66.637,66.637,0,0,1-19.455-5.252,28.172,28.172,0,0,1-12.055-10.128,25.265,25.265,0,0,1-4.577-14.389,29.384,29.384,0,0,1,5.874-17.359,43.7,43.7,0,0,1,15.946-13.4q20.9-10.507,49.133-10.507a151.627,151.627,0,0,1,65,14.343q11.289,5.343,11.291,9.918,0,1.682-2.594,8.545l4.272,2.289,21.821-39.4ZM305.817,938.655q28.686,0,44.174-4.654a52.925,52.925,0,0,0,25.559-16.4q13.122-15.256,13.122-36.621A55.452,55.452,0,0,0,381.5,852.9a48.377,48.377,0,0,0-16.937-17.547,64.763,64.763,0,0,0-22.889-8.851q-12.816-2.439-35.858-2.441H196.259v4.883q5.493,1.527,7.63,3.967t2.136,7.019v176.39q0,4.74-2.136,7.17c-1.426,1.63-3.968,2.96-7.63,3.97v4.88h43.488v-4.88c-3.662-1.01-6.206-2.34-7.63-3.97s-2.136-4.01-2.136-7.17V938.655h75.836ZM229.981,843.9h78.125q17.546,0,25.94,1.374a43.094,43.094,0,0,1,15.106,5.34q15.564,9.156,15.564,30.823,0,21.515-15.564,30.67a43.085,43.085,0,0,1-15.182,5.341q-8.469,1.372-25.864,1.373H229.981V843.9ZM358.715,1302.95q3.354,7.02,3.357,9.46c0,3.67-2.959,5.9-8.876,6.72v4.88h49.438v-4.88c-5.8-1.43-9.563-3.15-11.291-5.19s-5.291-8.9-10.681-20.6l-73.09-158.69q-2.747-5.955-2.747-7.63,0-3.96,7.477-6.41v-4.88H261.643v4.88q7.474,1.98,7.477,5.95c0,1.43-.916,4.12-2.747,8.09l-76.294,164.64q-5.343,11.76-8.621,15.26t-9.537,4.58v4.88h46.463v-4.88q-9.033-1.53-9.033-6.11c0-1.52.863-4.17,2.594-7.93l18.315-39.52H341.666Zm-119.6-57.22,46.849-102.92,46.9,102.92H239.115ZM188.1,1606.83q-2.139,2.445-7.63,3.96v4.89H290.329q34.941,0,56.229-10t35.172-32.88q15.409-25.785,15.411-61.34,0-30.06-11.444-53.71-13.125-27.015-38.147-39.98-19.838-10.38-57.221-10.38H180.466v4.89q5.493,1.53,7.63,3.96t2.136,7.02v176.55Q190.232,1604.385,188.1,1606.83Zm26.092-179.6h75.226q24.718,0,39.368,5.49a56.232,56.232,0,0,1,24.871,18.62q18.462,23.805,18.464,60.12a111.943,111.943,0,0,1-5.8,36.77q-8.851,25.185-27.771,37.39-16.022,10.215-49.133,10.22H214.188V1427.23Zm102.387,382.91c4.272,0,7.3.67,9.079,1.99s3.128,3.92,4.043,7.78h4.883v-39.37H329.7q-1.373,5.805-4.043,7.78-2.672,2-9.079,1.99H230.362V1718.9H361.893q6.41,0,9.079,2.01t4.044,7.75H379.9V1689.3h-4.883c-1.018,3.9-2.392,6.51-4.12,7.81s-4.73,1.95-9,1.95H196.641v4.88c3.864,1.02,6.458,2.4,7.781,4.12s1.984,4.73,1.984,9.01v172.27q0,6.4-1.907,9c-1.273,1.73-3.891,3.11-7.858,4.12v4.88h167.1q6.4,0,9.07,1.99t4.193,7.78h4.883v-39.37H377q-1.373,5.8-4.043,7.78-2.672,1.995-9.079,1.99H230.362v-77.37h86.213Z"/>
  <path id="Spades_1" data-name="Spades 1" class="cls-1" d="M1257.41,1318.5c38.59-141.94,270-282.03,301.93-421.578,0.02,0.1.05,0.2,0.07,0.3a3,3,0,0,0,.08-0.3c31.93,139.548,263.34,279.638,301.92,421.578,52.27,192.28-206.88,263.15-286.32,114.4,42.22,139.71,155.15,212.24,155.15,212.24H1388.59s113.52-71.91,155.47-212.82C1464.99,1581.84,1205.07,1511.03,1257.41,1318.5Z"/>
  <path id="_" data-name="&amp;" class="cls-1" d="M371.27,280.657q-13.654-38.269-49.907-55.054,23.274-8.729,35.7-24.953t12.42-38.157q0-29.316-20.365-50.354-25.738-26.856-72.957-26.856-39.838,0-64.454,20.142-27.081,21.71-27.079,56.4,0,37.379,38.941,56.844-27.307,8.283-43.193,20.142A88.545,88.545,0,0,0,154.3,269.243a80.569,80.569,0,0,0-9.288,37.6q0,37.377,28.646,65.124,30.884,29.541,82.8,29.541,72.731,0,108.094-57.963,11.414,27.528,32.226,39.724t57.068,12.868v-45.43h-6.042q-1.569,8.508-2.574,9.959t-5.035,1.454q-11.195,0-24.842-10.07-16.565-11.861-28.869-40.955,19.018-35.583,30.66-49.683,15.888-19.244,25.289-19.246,4.7,0,5.371,10.966h6.042V198.524q-50.133,6.269-82.58,82.133h0ZM322.035,130.042q13.873,13.655,13.875,33.794,0,19.25-14.771,32-15.668,13.655-41.178,13.652-27.081,0-45.43-14.323-16.339-12.756-16.338-34.017,0-24.39,18.128-37.6,15.216-10.742,38.493-10.742,29.986,0.226,47.221,17.232h0Zm-2.686,131.145a88.464,88.464,0,0,1,17.792,24.281q7.05,13.989,7.049,24.73,0,17.613-21.708,36.346-27.752,24.306-63.782,24.3-38.047,0-61.32-23.236-17.235-16.972-17.232-43.787t20.366-44.014q24.615-20.777,59.977-20.778,36.255,0.451,58.858,22.156h0Z"/>
  <path id="SOFTWARE" class="cls-1" d="M720.947,1779.36c-2.1,2.74-3.764,4.1-4.985,4.1a16.689,16.689,0,0,1-4.17-1.43,149.013,149.013,0,0,0-27.009-9.53,114.372,114.372,0,0,0-25.889-2.77,106.222,106.222,0,0,0-31.433,4.42q-14.343,4.425-22.481,12.16-10.986,10.59-10.986,25.33a31.394,31.394,0,0,0,4.221,15.97A30.007,30.007,0,0,0,609.659,1839a58.122,58.122,0,0,0,17.65,6.31q9.918,1.935,27.415,2.65,24.514,0.915,29.754,1.37a40.749,40.749,0,0,1,10.122,2.19q15.156,5.19,15.157,18.82,0,10.365-8.85,17.9-13.327,11.295-39.063,11.29a97.744,97.744,0,0,1-23.549-2.69,102.566,102.566,0,0,1-22.532-8.8q-13.023-6.825-13.021-10.07,0-1.425,1.933-5.5l-2.848-1.63-15.259,25.54,2.746,1.73c2.17-2.44,3.764-3.67,4.781-3.67,0.611,0,2.61.79,6,2.34q18.208,9.57,31.332,13.13t30.721,3.56q30.518,0,47.912-13.43,15.664-12,15.666-30.82,0-19.74-17.293-29.4-6.511-3.66-16.582-5.14t-33.467-2.19q-16.887-.495-24.363-1.47a44.4,44.4,0,0,1-12.97-3.5,18.8,18.8,0,0,1-8.037-6.75,16.843,16.843,0,0,1-3.051-9.59,19.62,19.62,0,0,1,3.916-11.58,29.153,29.153,0,0,1,10.63-8.93q13.937-7.005,32.756-7a100.982,100.982,0,0,1,43.335,9.56q7.527,3.555,7.527,6.61a24.529,24.529,0,0,1-1.729,5.7l2.848,1.52L723.8,1780.8Zm70.7-3.32q-22.38,8.64-34.587,27.46a69.568,69.568,0,0,0,12.919,90.74q22.379,19.23,58.9,19.23,20.853,0,37.333-6.31a69.589,69.589,0,0,0,34.485-27.57,66.663,66.663,0,0,0,11.292-37.13,71.738,71.738,0,0,0-5.188-27.36,66.8,66.8,0,0,0-18.921-26.14q-22.484-19.23-59.2-19.23-21.363.3-37.028,6.31h0Zm65.714,12a57.639,57.639,0,0,1,21.363,13.12q16.58,15.675,16.581,41.2,0,23.61-16.581,39.67-18.211,17.505-49.846,17.5-31.534,0-49.642-17.5-16.685-16.065-16.683-40.48,0-24.315,16.683-40.39,18.209-17.49,49.439-17.49a90.757,90.757,0,0,1,28.686,4.37h0Zm194.6-2.64q4.275,0,6.05,1.29t2.7,5.22h3.25v-26.25h-3.25c-0.61,2.61-1.51,4.34-2.7,5.21s-3.2,1.3-6.05,1.3H939.046v3.26q3.864,0.915,5.188,2.69t1.322,6.05v114.85q0,4.275-1.322,6c-0.882,1.16-2.612,2.07-5.188,2.75v3.26h28.991v-3.26c-2.644-.68-4.391-1.59-5.238-2.75s-1.272-3.15-1.272-6v-53h60.223c2.85,0,4.86.45,6.05,1.33s2.09,2.61,2.7,5.18h3.25v-26.24h-3.25q-0.915,3.87-2.7,5.19c-1.19.88-3.2,1.32-6.05,1.32H961.527v-47.4h90.433Zm144.35,0c2.85,0,4.86.43,6.05,1.29s2.09,2.6,2.7,5.22h3.25v-26.25h-3.25c-0.61,2.61-1.51,4.34-2.7,5.21s-3.2,1.3-6.05,1.3H1086.34q-4.26,0-6.05-1.3c-1.19-.87-2.08-2.6-2.69-5.21h-3.26v26.25h3.26c0.61-2.62,1.5-4.36,2.69-5.22s3.21-1.29,6.05-1.29h47v113.62q0,4.275-1.32,6c-0.88,1.16-2.61,2.07-5.19,2.75v3.26h28.99v-3.26q-3.87-1.02-5.19-2.8c-0.88-1.18-1.32-3.17-1.32-5.95V1785.4h47Zm172.26,109.86q2.025,5.6,2.03,6.92c0,2.84-1.93,4.71-5.8,5.59v3.26h33.19v-3.26q-5.805-1.425-5.8-5.49,0-1.935,2.03-7.84l35.54-102.23q3.36-9.96,5.65-12.87,2.28-2.895,7.28-3.91v-3.26h-30.74v3.26q5.715,1.11,5.71,4.98,0,2.34-2.45,9.66l-33.3,98.12-33.66-98.12q-2.76-7.92-2.75-9.46,0-3.75,5.8-5.18v-3.26h-35.48v3.26c3.87,0.68,5.81,2.23,5.81,4.68q0,1.32-2.96,9.96l-34.32,98.12-34.58-98.12q-2.745-7.83-2.75-9.46,0-4.47,6.11-5.18v-3.26h-32.61v3.26q4.89,0.915,6.97,3.61t5.96,13.17l37.16,102.23q2.235,6.21,2.24,8.35c0,2.57-1.93,4.24-5.8,4.98v3.26h33.75v-3.26c-3.87-1.08-5.8-2.75-5.8-4.98q0-2.34,2.04-8.35l35.17-101.49Zm187.46,1.73q2.235,4.68,2.23,6.31,0,3.66-5.91,4.47v3.26h32.96v-3.26q-5.8-1.425-7.53-3.46t-7.12-13.73l-48.73-105.79c-1.22-2.65-1.83-4.34-1.83-5.09,0-1.76,1.66-3.19,4.98-4.27v-3.26h-33.77v3.26c3.32,0.88,4.99,2.2,4.99,3.96q0,1.425-1.83,5.4l-50.87,109.76q-3.555,7.83-5.74,10.17a10.907,10.907,0,0,1-6.36,3.05v3.26h30.97v-3.26c-4.01-.68-6.02-2.03-6.02-4.07a15.589,15.589,0,0,1,1.73-5.29l12.21-26.34h74.27Zm-79.74-38.15,31.24-68.61,31.26,68.61h-62.5Zm199.04-10.27,31.54,49.76q3.555,5.58,3.56,6.6,0,2.025-4.98,2.84v3.26h32.14v-3.26a10.139,10.139,0,0,1-9.16-5.08l-35.29-54.84q18.4-1.425,28.94-11.45,10.515-10.035,10.52-25.93a37.363,37.363,0,0,0-4.88-19.05,32.615,32.615,0,0,0-11.19-11.71,45.233,45.233,0,0,0-15.82-5.86q-9.105-1.68-24.77-1.68h-76.19v3.26q3.87,0.915,5.19,2.69t1.32,6.05v114.85q0,4.275-1.32,6c-0.88,1.16-2.61,2.07-5.19,2.75v3.26h28.99v-3.26c-2.58-.68-4.3-1.61-5.19-2.79s-1.32-3.17-1.32-5.94v-50.47h53.1Zm-53.1-63.17h54.83a129.6,129.6,0,0,1,18.16.91,32.066,32.066,0,0,1,10.63,3.56q10.785,6.105,10.78,20.55,0,14.34-10.47,20.45a31.258,31.258,0,0,1-10.33,3.51,115.816,115.816,0,0,1-17.34.96h-56.26V1785.4Zm217.59,60.83q4.275,0,6.06,1.32,1.77,1.32,2.69,5.19h3.26v-26.25h-3.26q-0.915,3.87-2.69,5.19t-6.06,1.32h-57.47v-47.6h87.69c2.84,0,4.86.44,6.05,1.34s2.08,2.62,2.69,5.17h3.26v-26.25h-3.26c-0.67,2.61-1.59,4.34-2.74,5.21s-3.16,1.3-6,1.3H1759.87v3.26q3.855,1.02,5.18,2.74,1.335,1.74,1.33,6v114.85c0,2.85-.43,4.85-1.27,6s-2.6,2.07-5.24,2.75v3.26h111.39c2.85,0,4.86.44,6.05,1.32s2.12,2.61,2.8,5.19h3.25v-26.25h-3.25q-0.915,3.87-2.7,5.19c-1.19.88-3.2,1.32-6.05,1.32h-89.01v-51.57h57.47Z"/>
</svg>
